PathFileType	4	(X/Y/Z)	 s10c0202.trc
DataRate	CameraRate	NumFrames	NumMarkers	Units	OrigDataRate	OrigDataStartFrame	OrigNumFrames
200	200	4	50	mm	200	501	2000
Frame#	Time	racr			lacr			c7			jug			rlel			rdr			llel			ldr			s2			lic			ric			lasi			rasi			rpsi			lpsi			rgt			lgt			rth1			rth2			rth3			rth4			rlfc			rmfc			rsh1			rsh2			rsh3			rsh4			rlmal			rmmal			rcal			rtoe			rmt5			lth1			lth2			lth4			lth3			llfc			lmfc			llmal			lmmal			lcal			lmt5			lsh1			lsh2			lsh3			lsh4			ltoe			SBIKE			LBIKE			RBIKE			
		X1	Y1	Z1	X2	Y2	Z2	X3	Y3	Z3	X4	Y4	Z4	X5	Y5	Z5	X6	Y6	Z6	X7	Y7	Z7	X8	Y8	Z8	X9	Y9	Z9	X10	Y10	Z10	X11	Y11	Z11	X12	Y12	Z12	X13	Y13	Z13	X14	Y14	Z14	X15	Y15	Z15	X16	Y16	Z16	X17	Y17	Z17	X18	Y18	Z18	X19	Y19	Z19	X20	Y20	Z20	X21	Y21	Z21	X22	Y22	Z22	X23	Y23	Z23	X24	Y24	Z24	X25	Y25	Z25	X26	Y26	Z26	X27	Y27	Z27	X28	Y28	Z28	X29	Y29	Z29	X30	Y30	Z30	X31	Y31	Z31	X32	Y32	Z32	X33	Y33	Z33	X34	Y34	Z34	X35	Y35	Z35	X36	Y36	Z36	X37	Y37	Z37	X38	Y38	Z38	X39	Y39	Z39	X40	Y40	Z40	X41	Y41	Z41	X42	Y42	Z42	X43	Y43	Z43	X44	Y44	Z44	X45	Y45	Z45	X46	Y46	Z46	X47	Y47	Z47	X48	Y48	Z48	X49	Y49	Z49	X50	Y50	Z50	
501	2.5050	398.011357	1219.757588	-24.876414	446.735242	1219.629751	-301.561964	370.373188	1283.023741	-173.870276	344.440681	1131.171309	-169.417650	395.403793	973.591533	81.240592	592.560500	915.881385	1.004624	447.563665	1009.913006	-483.125084	615.578854	909.468603	-382.066827	-157.592721	1096.258503	-234.852169	14.775868	1116.280941	-384.509564	1.286971	1128.389539	-83.816931	47.074657	1032.754245	-351.337807	17.599702	1052.506473	-88.803332	-120.985110	1159.840708	-182.347099	-103.772551	1169.144437	-291.821876	-87.708050	1019.769671	-38.756600	-77.522258	970.695888	-416.430662	41.898602	943.115280	-21.185786	128.727766	936.613701	-37.208179	199.168209	888.276334	-41.956169	138.990012	972.005733	-45.634950	303.435170	844.189158	-64.662025	287.299898	827.322040	-182.392950	246.910145	746.307242	-32.176065	233.570751	658.865242	-42.797813	181.123322	590.465418	-40.611947	259.402747	650.328735	-71.055479	140.108964	494.959932	-53.967913	158.367608	510.375601	-138.701829	91.302234	452.681801	-99.174069	327.783721	503.747465	-81.236531	254.005994	453.917612	-22.418922	7.318320	868.245802	-427.665191	81.138163	824.509555	-412.048354	105.881584	850.314733	-404.359756	124.424277	748.025183	-399.098284	187.546583	662.288748	-375.267172	183.338498	658.154843	-258.490640	15.316938	321.108588	-379.770665	30.827950	315.950280	-301.781464	-41.084873	314.977781	-335.753826	83.359246	184.976743	-393.867511	112.332649	561.972911	-409.911495	105.987312	476.226324	-395.603945	55.282152	402.898693	-393.076384	133.573439	469.555470	-370.190925	165.531996	164.872583	-334.240880	-204.955383	832.518784	-223.961817	-78.220440	81.680290	-423.598452	-102.783624	80.464632	-24.548382	
502	2.5100	399.231562	1217.722216	-24.002434	447.886550	1217.709664	-301.640495	372.159809	1280.986687	-172.864788	345.316585	1129.494634	-168.973644	394.939488	971.665702	81.742614	592.105685	915.683315	1.000547	446.993449	1008.897714	-483.436118	614.648733	908.896759	-381.566689	-156.802428	1096.820347	-233.804692	15.319704	1116.678865	-383.756614	2.597722	1127.614680	-83.202695	47.163059	1032.801319	-350.973487	18.594483	1051.668868	-88.358360	-119.516158	1159.942595	-181.346952	-102.735130	1169.697293	-290.855405	-86.760959	1018.918553	-38.133731	-77.321827	971.199971	-416.056402	42.330778	941.135620	-20.649638	129.081068	934.019207	-36.509380	199.184155	885.029963	-41.838894	139.611951	969.366698	-44.822403	303.098115	841.309855	-63.805689	286.717252	824.609898	-181.525256	247.609231	742.281980	-31.329407	235.357247	654.645182	-42.106920	183.736698	585.748035	-40.047278	261.268126	646.520733	-70.329448	143.940571	489.405332	-53.607863	162.104387	505.230385	-138.326521	95.350584	447.046008	-98.537614	331.582720	500.071498	-81.129413	258.321393	449.618842	-22.185897	8.168100	868.692631	-427.318782	82.128427	825.256960	-411.459004	106.688137	851.225737	-403.460022	125.599691	748.935830	-398.696641	188.886007	663.475811	-374.827049	182.810783	658.525395	-258.025054	10.823596	324.991641	-379.873495	26.624093	319.598256	-301.949258	-45.527201	318.958615	-335.746270	78.720888	188.956758	-394.118249	112.123924	563.929919	-410.129726	104.388567	478.251898	-395.614244	52.569490	405.792353	-393.117770	131.739106	471.296128	-370.062920	160.928926	168.771029	-334.421159	-204.950672	832.506507	-223.940101	-78.218398	81.660091	-423.601546	-102.797983	80.450673	-24.565840	
503	2.5150	400.498486	1215.797932	-23.091874	448.949639	1216.103091	-301.622796	374.303621	1279.491475	-172.847022	346.130643	1127.822757	-168.742142	394.558941	969.850115	82.240020	591.701427	915.447366	0.991742	446.329316	1007.980411	-483.847670	613.730627	908.426765	-381.086972	-155.875315	1097.475439	-232.912498	15.910401	1116.949163	-382.794332	3.955554	1126.762384	-82.613902	47.312281	1032.878926	-350.587704	19.810610	1050.922098	-87.617959	-117.912180	1160.103507	-180.471652	-101.430892	1170.459530	-290.091165	-85.613609	1018.362576	-37.270445	-77.045037	971.743222	-415.682401	42.788625	939.380728	-19.761435	129.419115	931.620053	-35.516057	199.063898	882.037955	-41.364449	140.271889	967.010717	-43.897508	302.574863	838.320267	-63.259014	285.995909	821.990518	-180.906527	248.176323	738.230229	-30.541500	237.044983	650.409059	-41.367384	186.244920	580.911438	-39.592464	263.062680	642.709230	-69.602364	147.659173	483.786637	-53.268143	165.643001	500.059577	-137.872146	99.790062	440.831067	-98.577922	335.382726	496.287573	-80.881735	262.574724	445.063180	-21.920847	9.012550	869.121375	-427.148485	83.020108	825.927576	-410.984655	107.491653	851.939170	-402.577968	126.770800	749.771431	-398.495480	190.119388	664.427394	-374.552149	182.114638	658.797367	-257.820244	6.343089	329.133110	-379.933042	22.622583	323.113233	-302.098047	-50.021391	323.158514	-335.788540	74.164285	193.274756	-394.334314	111.954651	565.966340	-410.425572	102.828380	480.405178	-395.688078	49.876330	408.711089	-393.227958	129.942481	473.162915	-370.005842	156.392885	173.146580	-334.680595	-204.934849	832.515602	-223.938729	-78.209413	81.696422	-423.602644	-102.821027	80.458720	-24.604361	
504	2.5200	401.841630	1213.965481	-22.190080	449.963126	1214.842764	-301.591209	376.201217	1277.758755	-172.539419	347.129448	1126.469304	-168.264701	394.139578	967.963640	82.663987	591.371794	915.264893	1.029778	445.854964	1007.241574	-484.163273	612.878245	907.916483	-380.559065	-154.910136	1098.040224	-231.785797	16.597616	1117.364168	-382.015624	5.397117	1125.931335	-82.003485	47.467043	1033.017200	-350.154386	20.932065	1049.920200	-87.172589	-116.311609	1160.177254	-179.347313	-100.337209	1171.119620	-288.974619	-84.485961	1018.049636	-36.482096	-76.724572	972.296262	-415.315418	42.804582	937.938869	-18.513623	129.684712	929.082905	-34.754160	198.833863	878.907032	-40.893050	140.756548	964.432232	-43.112046	301.925281	835.126906	-62.747666	285.263285	819.161072	-179.994991	248.726831	734.170006	-29.720692	238.695218	646.283314	-40.655185	188.631029	576.112443	-39.117249	264.768655	638.983349	-68.933843	151.451689	478.130807	-52.791670	169.251128	494.684008	-137.506965	104.198162	435.243122	-97.788475	339.052749	492.262249	-80.746454	266.683998	440.482416	-21.646071	9.869555	869.535607	-427.022885	83.947672	826.698062	-410.621134	108.192149	852.641800	-401.720390	127.833892	750.464375	-398.427313	191.402427	665.465217	-374.446934	182.376441	659.025369	-257.384871	2.058423	333.465805	-379.891555	17.807788	327.529672	-301.886588	-54.458866	327.377124	-335.838325	69.779840	197.550275	-394.466112	111.789946	568.036415	-410.724634	101.274214	482.772676	-395.779161	47.136362	411.795009	-393.314766	128.064185	474.993555	-369.895503	152.037898	177.467477	-334.829245	-204.896466	832.527317	-223.896708	-78.210462	81.698133	-423.626780	-102.814173	80.461045	-24.608577	
